<svg id="Layer_1" data-name="Layer 1" xmlns="http://www.w3.org/2000/svg" viewBox="0 0 100 100"><defs><style>.cls-1{fill:#6d6e71;}.cls-2{fill:none;}.cls-2,.cls-3{stroke:#6d6e71;stroke-miterlimit:10;}.cls-3{fill:#a7a9ac;}.cls-4{fill:#fff;}</style></defs><title>WebsiteLogos</title><path class="cls-1" d="M31.95,43.66H28.2l-.66,1.53a2.42,2.42,0,0,0-.24.84.49.49,0,0,0,.21.39,1.85,1.85,0,0,0,.91.22v.26h-3v-.26a1.64,1.64,0,0,0,.78-.28A4.36,4.36,0,0,0,27,45l3.4-8h.25l3.37,8a3.65,3.65,0,0,0,.74,1.26,1.5,1.5,0,0,0,.92.32v.26H31.83v-.26a1.43,1.43,0,0,0,.78-.19.5.5,0,0,0,.2-.4,3,3,0,0,0-.29-1Zm-.2-.53-1.64-3.91-1.68,3.91Z"/><path class="cls-1" d="M40,46a10.76,10.76,0,0,1-1.26.9,1.92,1.92,0,0,1-.82.18,1.47,1.47,0,0,1-1.12-.46,1.7,1.7,0,0,1-.44-1.22,1.56,1.56,0,0,1,.21-.83,2.84,2.84,0,0,1,1-.91,15.74,15.74,0,0,1,2.41-1v-.26A2.14,2.14,0,0,0,39.66,41a1.12,1.12,0,0,0-.9-.36,1,1,0,0,0-.71.24.73.73,0,0,0-.27.56v.41a.71.71,0,0,1-.17.51.58.58,0,0,1-.44.18.56.56,0,0,1-.43-.18.73.73,0,0,1-.17-.51,1.46,1.46,0,0,1,.63-1.13A2.71,2.71,0,0,1,39,40.17a3.07,3.07,0,0,1,1.43.29,1.35,1.35,0,0,1,.62.69,3.89,3.89,0,0,1,.13,1.25v2.22a10.18,10.18,0,0,0,0,1.14.47.47,0,0,0,.12.28.28.28,0,0,0,.19.07.39.39,0,0,0,.2,0,4.45,4.45,0,0,0,.58-.52V46Q41.47,47,40.74,47a.7.7,0,0,1-.56-.24A1.31,1.31,0,0,1,40,46Zm0-.46V43a14,14,0,0,0-1.39.61,2.39,2.39,0,0,0-.81.66,1.26,1.26,0,0,0-.24.75,1.22,1.22,0,0,0,.31.85.93.93,0,0,0,.71.34A2.59,2.59,0,0,0,40,45.49Z"/><path class="cls-1" d="M30.52,50.2l4,11H33.28l-1.22-3.38H27.32L26.1,61.25H24.83l4.07-11Zm-.83,1.09-2,5.53h3.94Z"/><path class="cls-1" d="M42.28,61.35l-.21,0h-.22A1.07,1.07,0,0,1,41,61a1.89,1.89,0,0,1-.38-1.16,4.71,4.71,0,0,1-.75.79,3.34,3.34,0,0,1-.73.46,2.73,2.73,0,0,1-.74.22,5.3,5.3,0,0,1-.75.05,2.66,2.66,0,0,1-.92-.16A2.17,2.17,0,0,1,36,60.8a2.05,2.05,0,0,1-.5-.71,2.26,2.26,0,0,1-.18-.92,1.61,1.61,0,0,1,.22-.87,2.12,2.12,0,0,1,.59-.62,3.86,3.86,0,0,1,.83-.44q.46-.18,1-.32l.95-.26a6.08,6.08,0,0,0,.83-.28,2.11,2.11,0,0,0,.59-.36.66.66,0,0,0,.22-.51,1.08,1.08,0,0,0-.5-1,2.73,2.73,0,0,0-1.41-.3,3.13,3.13,0,0,0-.67.07,1.81,1.81,0,0,0-.56.21,1.3,1.3,0,0,0-.4.38,1.33,1.33,0,0,0-.21.56H35.55a2,2,0,0,1,.33-1,2.44,2.44,0,0,1,.72-.71,3.4,3.4,0,0,1,1-.41,4.32,4.32,0,0,1,1.07-.14,5.12,5.12,0,0,1,1.14.13,2.94,2.94,0,0,1,1,.41,2.16,2.16,0,0,1,.68.73,2.13,2.13,0,0,1,.26,1.08V59.7a.73.73,0,0,0,0,.25.69.69,0,0,0,.13.22.68.68,0,0,0,.18.16.43.43,0,0,0,.22.06Zm-1.75-4.58a1.93,1.93,0,0,1-.64.42,8,8,0,0,1-.84.31l-.9.26a4.93,4.93,0,0,0-.82.3,1.93,1.93,0,0,0-.59.42.89.89,0,0,0-.23.63,1.31,1.31,0,0,0,.12.58,1.13,1.13,0,0,0,.31.39,1.21,1.21,0,0,0,.44.22,1.85,1.85,0,0,0,.5.07,2.65,2.65,0,0,0,1.43-.44,3.79,3.79,0,0,0,1.23-1.36Z"/><path class="cls-2" d="M16.34,32.67H50a0,0,0,0,1,0,0V67.33a0,0,0,0,1,0,0H16.34a1,1,0,0,1-1-1V33.67A1,1,0,0,1,16.34,32.67Z"/><path class="cls-3" d="M50,32.67H83.66a1,1,0,0,1,1,1V66.33a1,1,0,0,1-1,1H50a0,0,0,0,1,0,0V32.67a0,0,0,0,1,0,0Z"/><path class="cls-4" d="M66.3,43.66H62.55l-.66,1.53a2.42,2.42,0,0,0-.24.84.49.49,0,0,0,.21.39,1.85,1.85,0,0,0,.91.22v.26h-3v-.26a1.64,1.64,0,0,0,.78-.28A4.36,4.36,0,0,0,61.32,45l3.4-8H65l3.37,8a3.65,3.65,0,0,0,.74,1.26,1.5,1.5,0,0,0,.92.32v.26H66.18v-.26a1.43,1.43,0,0,0,.78-.19.5.5,0,0,0,.2-.4,3,3,0,0,0-.29-1Zm-.2-.53-1.64-3.91-1.68,3.91Z"/><path class="cls-4" d="M74.32,46a10.76,10.76,0,0,1-1.26.9,1.92,1.92,0,0,1-.82.18,1.47,1.47,0,0,1-1.12-.46,1.7,1.7,0,0,1-.44-1.22,1.56,1.56,0,0,1,.21-.83,2.84,2.84,0,0,1,1-.91,15.74,15.74,0,0,1,2.41-1v-.26A2.14,2.14,0,0,0,74,41a1.12,1.12,0,0,0-.9-.36,1,1,0,0,0-.71.24.73.73,0,0,0-.27.56v.41a.71.71,0,0,1-.17.51.58.58,0,0,1-.44.18.56.56,0,0,1-.43-.18.73.73,0,0,1-.17-.51,1.46,1.46,0,0,1,.63-1.13,2.71,2.71,0,0,1,1.76-.51,3.07,3.07,0,0,1,1.43.29,1.35,1.35,0,0,1,.62.69,3.89,3.89,0,0,1,.13,1.25v2.22a10.18,10.18,0,0,0,0,1.14.47.47,0,0,0,.12.28.28.28,0,0,0,.19.07.39.39,0,0,0,.2,0,4.45,4.45,0,0,0,.58-.52V46Q75.82,47,75.09,47a.7.7,0,0,1-.56-.24A1.31,1.31,0,0,1,74.32,46Zm0-.46V43a14,14,0,0,0-1.39.61,2.39,2.39,0,0,0-.81.66,1.26,1.26,0,0,0-.24.75,1.22,1.22,0,0,0,.31.85.93.93,0,0,0,.71.34A2.59,2.59,0,0,0,74.32,45.49Z"/><path class="cls-4" d="M64.87,50.2l4,11H67.63l-1.22-3.38H61.67l-1.23,3.38H59.18l4.07-11ZM64,51.29l-2,5.53H66Z"/><path class="cls-4" d="M76.63,61.35l-.21,0H76.2a1.07,1.07,0,0,1-.83-.37A1.89,1.89,0,0,1,75,59.87a4.71,4.71,0,0,1-.75.79,3.34,3.34,0,0,1-.73.46,2.73,2.73,0,0,1-.74.22,5.3,5.3,0,0,1-.75.05,2.66,2.66,0,0,1-.92-.16,2.17,2.17,0,0,1-.75-.45,2.05,2.05,0,0,1-.5-.71,2.26,2.26,0,0,1-.18-.92,1.61,1.61,0,0,1,.22-.87,2.12,2.12,0,0,1,.59-.62,3.86,3.86,0,0,1,.83-.44q.46-.18,1-.32l.95-.26a6.08,6.08,0,0,0,.83-.28,2.11,2.11,0,0,0,.59-.36.66.66,0,0,0,.22-.51,1.08,1.08,0,0,0-.5-1,2.73,2.73,0,0,0-1.41-.3,3.13,3.13,0,0,0-.67.07,1.81,1.81,0,0,0-.56.21,1.3,1.3,0,0,0-.4.38,1.33,1.33,0,0,0-.21.56H69.9a2,2,0,0,1,.33-1,2.44,2.44,0,0,1,.72-.71,3.4,3.4,0,0,1,1-.41A4.32,4.32,0,0,1,73,53.17a5.12,5.12,0,0,1,1.14.13,2.94,2.94,0,0,1,1,.41,2.16,2.16,0,0,1,.68.73,2.13,2.13,0,0,1,.26,1.08V59.7a.73.73,0,0,0,0,.25.69.69,0,0,0,.13.22.68.68,0,0,0,.18.16.43.43,0,0,0,.22.06Zm-1.75-4.58a1.93,1.93,0,0,1-.64.42,8,8,0,0,1-.84.31l-.9.26a4.93,4.93,0,0,0-.82.3,1.93,1.93,0,0,0-.59.42.89.89,0,0,0-.23.63,1.31,1.31,0,0,0,.12.58,1.13,1.13,0,0,0,.31.39,1.21,1.21,0,0,0,.44.22,1.85,1.85,0,0,0,.5.07,2.65,2.65,0,0,0,1.43-.44,3.79,3.79,0,0,0,1.23-1.36Z"/></svg>