<svg id="Layer_1" data-name="Layer 1" xmlns="http://www.w3.org/2000/svg" viewBox="0 0 100 100"><defs><style>.cls-1{fill:#e55a65;}.cls-2,.cls-3{fill:none;stroke:#fff;stroke-miterlimit:10;}.cls-3{stroke-linecap:round;stroke-width:0.5px;}.cls-4{fill:#fff;}</style></defs><title>WebsiteLogos</title><rect class="cls-1" width="100" height="100"/><polygon class="cls-2" points="59.46 58.47 54.73 61.2 50 58.47 50 53.01 54.73 50.28 59.46 53.01 59.46 58.47"/><path class="cls-2" d="M29.38,35.89H70.62a0,0,0,0,1,0,0V65.77A1.63,1.63,0,0,1,69,67.4H31a1.63,1.63,0,0,1-1.63-1.63V35.89A0,0,0,0,1,29.38,35.89Z"/><polygon class="cls-2" points="50 58.47 45.27 61.2 40.54 58.47 40.54 53.01 45.27 50.28 50 53.01 50 58.47"/><polygon class="cls-2" points="54.73 50.27 50 53.01 45.27 50.27 45.27 44.81 50 42.08 54.73 44.81 54.73 50.27"/><polyline class="cls-3" points="50 44.18 47.02 45.9 47.02 49.34"/><polyline class="cls-3" points="45.27 52.38 42.29 54.1 42.29 57.53"/><polyline class="cls-3" points="54.73 52.38 51.75 54.1 51.75 57.53"/><rect class="cls-2" x="27.47" y="32.6" width="45.06" height="3.28" rx="1.42" ry="1.42"/><rect class="cls-4" x="31.7" y="38.68" width="13.57" height="1.82" rx="0.91" ry="0.91"/><rect class="cls-4" x="31.7" y="42.81" width="9.33" height="1.82" rx="0.91" ry="0.91"/></svg>