<svg id="Layer_1" data-name="Layer 1" xmlns="http://www.w3.org/2000/svg" viewBox="0 0 100 100"><defs><style>.cls-1{fill:#6d6e71;}.cls-2{fill:#a7a9ac;}.cls-3{fill:none;stroke:#58595b;stroke-linecap:round;stroke-miterlimit:10;}</style></defs><title>WebsiteLogos</title><path class="cls-1" d="M45.24,35.85H62.06a.24.24,0,0,1,.24.24V39.5A1.35,1.35,0,0,1,61,40.85H46.34A1.35,1.35,0,0,1,45,39.5V36.09a.24.24,0,0,1,.24-.24Z" transform="translate(25.16 -21.12) rotate(28.84)"/><rect class="cls-2" x="44.09" y="41.12" width="15.64" height="0.78" rx="0.39" ry="0.39" transform="translate(26.47 -19.89) rotate(28.84)"/><path class="cls-1" d="M58,46.93a1,1,0,0,0-.48-1.07l-6.13-3.38-6.13-3.38a1,1,0,0,0-1.16.17l-4.5,4.58a1,1,0,0,0-.23,1,30.61,30.61,0,0,1,1.27,7A34.1,34.1,0,0,1,39.11,64a1,1,0,0,0-.83,1.8L47.54,49a1,1,0,1,1,.39.21L38.67,66a1,1,0,0,0,1.07-1.67,34.1,34.1,0,0,1,9.48-7.77,30.61,30.61,0,0,1,6.61-2.68,1,1,0,0,0,.69-.71Z"/><line class="cls-3" x1="68.11" y1="67.93" x2="31.89" y2="67.93"/></svg>