<svg id="Layer_1" data-name="Layer 1" xmlns="http://www.w3.org/2000/svg" viewBox="0 0 100 100"><defs><style>.cls-1{fill:#4f6499;}.cls-2,.cls-3,.cls-4{fill:none;}.cls-3,.cls-4{stroke:#fff;stroke-miterlimit:10;}.cls-4{stroke-linecap:round;}.cls-5{fill:#fff;}</style></defs><title>WebsiteLogos</title><rect class="cls-1" width="100" height="100"/><rect class="cls-2" x="37.76" y="55.5" width="20.7" height="19.19"/><rect class="cls-3" x="36.46" y="52.3" width="7.37" height="15.1" rx="1.32" ry="1.32"/><path class="cls-3" d="M59.07,63.62a2,2,0,0,1,2,1.89h0a2,2,0,0,1-2,1.89H44.73a.86.86,0,0,1-.89-.83V63.62"/><line class="cls-3" x1="43.84" y1="59.85" x2="43.84" y2="56.07"/><path class="cls-4" d="M53.14,63.62H60a1.89,1.89,0,0,0,1.89-1.89h0A1.89,1.89,0,0,0,60,59.85h-5.3"/><line class="cls-4" x1="43.84" y1="59.85" x2="43.84" y2="63.62"/><circle class="cls-5" cx="41.63" cy="64.94" r="1.2"/><path class="cls-4" d="M55.24,56.07H61.4a2.08,2.08,0,0,0,2.1-1.54,1.94,1.94,0,0,0-2-2.24H50.72a.48.48,0,0,1-.48-.66c.18-.4.36-.83.53-1.27a12.23,12.23,0,0,0,1.15-4.9,3.31,3.31,0,0,0-.46-2,2.53,2.53,0,0,0-1.64-1,1.25,1.25,0,0,0-1.15.27,1.39,1.39,0,0,0-.22,1c0,2-.36,2.53-1.24,4.33a12.91,12.91,0,0,1-1.65,2.53c-.42.51-1,.9-1.43,1.4s-.29.77-.29,1.28v2.82"/><path class="cls-4" d="M59.09,59.85h1.57A1.89,1.89,0,0,0,62.55,58h0A1.88,1.88,0,0,0,62,56.63a1.93,1.93,0,0,0-1.33-.55"/><line class="cls-4" x1="50" y1="39.9" x2="50" y2="32.6"/><line class="cls-4" x1="55.89" y1="43.53" x2="61.06" y2="38.36"/><line class="cls-4" x1="57.54" y1="49.26" x2="64.84" y2="49.26"/><line class="cls-4" x1="35.16" y1="49.26" x2="42.46" y2="49.26"/><line class="cls-4" x1="38.87" y1="38.49" x2="44.03" y2="43.65"/></svg>